<svg width="512" height="512" viewBox="0 0 512 512" fill="none" xmlns="http://www.w3.org/2000/svg">
<rect width="512" height="512" fill="#D8E3E6"/>
<path d="M142.944 260.019C139.944 280.019 84.9438 337.519 30.9438 229.519C8.29157 184.214 -13.395 27.7506 65.6427 10.8495C145.143 -6.15051 132.5 55.671 155 50.8495C177.5 46.0281 190.766 17.0186 233.643 20.8495C265.411 23.688 274.778 37.656 294.143 50.8495C339.643 81.8495 294.143 11.8495 359.143 24.3495C437.862 39.4877 448.219 126.5 428.5 191.5C408.781 256.5 324.444 312.019 298.944 272.519C278.544 240.919 263.765 239.77 257.444 253.519C236.143 299.85 235.143 320.849 208.143 362.849C196.06 381.645 191.889 393.274 174.444 407.349C136.643 437.849 128.944 400.349 136.643 362.849C144.341 325.349 187.444 279.019 174.444 253.519C161.444 228.019 145.944 240.019 142.944 260.019Z" fill="#446682" stroke="black" stroke-width="8"/>
<path d="M174.444 253.519C161.444 228.019 145.944 240.019 142.944 260.019L129.5 247L119 217.5V146L129.5 85.5L144.362 46.5C147.15 49.9657 150.312 51.8541 155 50.8495C177.5 46.0281 190.766 17.0186 233.643 20.8495C265.411 23.688 274.778 37.656 294.143 50.8495C302.299 56.4067 307.531 58.7182 311 58.8411L314 139.5L308 217.5L289.921 260.019C274.189 240.918 262.791 241.889 257.444 253.519C236.143 299.85 235.143 320.849 208.143 362.849C196.06 381.645 191.889 393.274 174.444 407.349C136.643 437.849 128.944 400.349 136.643 362.849C144.341 325.349 187.444 279.019 174.444 253.519Z" fill="#83B8E3"/>
<path d="M30.9438 229.519C84.9438 337.519 139.944 280.019 142.944 260.019M142.944 260.019C145.944 240.019 161.444 228.019 174.444 253.519C187.444 279.019 144.341 325.349 136.643 362.849C128.944 400.349 136.643 437.849 174.444 407.349C191.889 393.274 196.06 381.645 208.143 362.849C235.143 320.849 236.143 299.85 257.444 253.519C262.791 241.889 274.189 240.918 289.921 260.019M142.944 260.019L129.5 247L119 217.5V146L129.5 85.5L144.362 46.5C147.15 49.9657 150.312 51.8541 155 50.8495C177.5 46.0281 190.766 17.0186 233.643 20.8495C265.411 23.688 274.778 37.656 294.143 50.8495C302.299 56.4067 307.531 58.7182 311 58.8411L314 139.5L308 217.5L289.921 260.019M428.5 191.5C408.781 256.5 324.444 312.019 298.944 272.519C295.799 267.647 292.788 263.5 289.921 260.019" stroke="black" stroke-width="8"/>
<path opacity="0.8" d="M169.169 132.1C159.174 132.1 144.182 136.332 146.181 128.22C148.18 120.107 165.671 115.169 179.164 117.638C192.656 120.107 201.014 137.279 192.656 139.86C176.665 144.798 177.006 132.1 169.169 132.1Z" fill="black" stroke="black" stroke-width="8"/>
<path opacity="0.8" d="M270.304 140.662C260.065 140.055 244.435 143.702 247.001 135.09C249.566 126.478 267.8 122.223 281.466 125.7C295.132 129.177 302.599 148.171 293.872 150.442C277.174 154.787 278.334 141.138 270.304 140.662Z" fill="black" stroke="black" stroke-width="8"/>
<path opacity="0.8" d="M267.443 161.429C250.561 156.276 250.852 145.685 256.382 138.243C261.913 130.8 270.063 130.228 279.377 135.38C288.691 140.532 291.31 146.83 286.944 154.845C283.358 161.429 280.35 165.368 267.443 161.429Z" fill="white" stroke="black" stroke-width="8"/>
<path opacity="0.8" d="M165.443 152.429C148.561 147.276 148.852 136.685 154.382 129.243C159.913 121.8 168.063 121.228 177.377 126.38C186.691 131.532 189.31 137.83 184.944 145.845C181.358 152.429 178.35 156.368 165.443 152.429Z" fill="white" stroke="black" stroke-width="8"/>
<path d="M194.389 334.751C196.461 333.984 197.518 331.682 196.751 329.611C195.984 327.539 193.682 326.482 191.611 327.249L194.389 334.751ZM148.827 334.358C158.054 340.328 166.096 341.834 173.758 340.975C181.074 340.155 187.974 337.127 194.389 334.751L191.611 327.249C184.526 329.873 178.926 332.345 172.867 333.025C167.154 333.666 160.946 332.672 153.173 327.642L148.827 334.358Z" fill="black"/>
<path d="M219.35 275.765C221.43 275.02 222.511 272.73 221.765 270.65C221.02 268.57 218.73 267.489 216.65 268.235L219.35 275.765ZM173.877 275.39C183.098 281.166 191.117 282.613 198.744 281.785C206.042 280.993 212.925 278.069 219.35 275.765L216.65 268.235C209.575 270.771 203.958 273.172 197.881 273.832C192.133 274.456 185.902 273.483 178.123 268.61L173.877 275.39Z" fill="black"/>
<path d="M204.383 305.753C206.456 304.99 207.517 302.69 206.753 300.617C205.99 298.544 203.69 297.483 201.617 298.247L204.383 305.753ZM159.049 305.492C177.813 315.978 194.983 309.216 204.383 305.753L201.617 298.247C192.017 301.784 178.187 307.022 162.951 298.508L159.049 305.492Z" fill="black"/>
<path d="M141.651 48C85.0608 215.311 139 281.446 147 246.5" stroke="black" stroke-width="8" stroke-linecap="round"/>
<path d="M309.643 62.8195C323.049 227.899 295.908 271.533 282.635 252.217" stroke="black" stroke-width="8" stroke-linecap="round"/>
<rect x="294" y="300" width="206" height="190" rx="24" fill="white" stroke="black" stroke-width="8" stroke-linecap="round"/>
<path d="M89.6994 313.084C129.5 345.5 196.2 227.114 178.274 207.853C168.336 197.175 158.338 191.227 148 225C140.092 250.838 113.143 282.025 110 259.5C107 238 77.8231 232.787 77.6067 267C77.5406 277.454 72.313 298.923 89.6994 313.084Z" fill="white" stroke="black" stroke-width="8" stroke-linecap="round"/>
<path d="M297 320C297 308.954 305.954 300 317 300H470C486.016 300 499 312.984 499 329V353H297V320Z" fill="#83B8E3"/>
<path d="M315.998 488.174C304.953 488.006 296.137 478.916 296.305 467.871L298.349 333.997C298.594 317.982 311.774 305.198 327.789 305.443L362.418 305.971L359.626 488.84L315.998 488.174Z" fill="#83B8E3"/>
<path d="M258.7 343.342C216.449 358.006 224.516 229.237 245.674 218.494C257.404 212.538 267.015 210.804 258.72 244.456C252.375 270.202 256.717 307.451 269.17 288.566C281.058 270.541 303.559 276.262 288.084 306.715C283.356 316.02 277.157 336.936 258.7 343.342Z" fill="white" stroke="black" stroke-width="8" stroke-linecap="round"/>
<line x1="360" y1="307" x2="360" y2="489" stroke="black" stroke-width="8" stroke-linecap="round"/>
<line x1="433" y1="304" x2="433" y2="486" stroke="black" stroke-width="8" stroke-linecap="round"/>
<line x1="495" y1="357" x2="300" y2="357" stroke="black" stroke-width="8" stroke-linecap="round"/>
<line x1="493" y1="389" x2="298" y2="389" stroke="black" stroke-width="8" stroke-linecap="round"/>
<line x1="495" y1="423" x2="300" y2="423" stroke="black" stroke-width="8" stroke-linecap="round"/>
<line x1="496" y1="454" x2="301" y2="454" stroke="black" stroke-width="8" stroke-linecap="round"/>
<line x1="496" y1="357" x2="301" y2="357" stroke="black" stroke-width="8" stroke-linecap="round"/>
<rect x="294" y="300" width="206" height="190" rx="24" stroke="black" stroke-width="8" stroke-linecap="round"/>
</svg>
